<svg width="429" height="149" viewBox="0 0 429 149" fill="none" xmlns="http://www.w3.org/2000/svg">
<path d="M199.321 108.113C199.321 123.919 193.226 130.939 178.679 130.939H142.65C128.237 130.939 122 123.919 122 108.113V69.8259C122 54.0296 128.237 47 142.65 47H178.679C193.226 47 199.321 54.0296 199.321 69.8259V108.113ZM178.954 75.8784C178.954 67.5731 177.571 65.9808 168.978 65.9808H152.484C143.757 65.9808 142.367 67.5731 142.367 75.8784V102.052C142.367 110.348 143.757 111.949 152.484 111.949H168.978C177.571 111.949 178.954 110.348 178.954 102.052V75.8784Z" fill="white"/>
<path d="M418.268 66.0366C403.566 66.0366 397.282 73.2206 397.282 85.3537V127.969C397.282 129.887 396.29 131 393.977 131H376.465C374.152 131 373 129.887 373 127.969V50.0763C373 48.1581 374.152 47.0362 376.465 47.0362H391.167C393.321 47.0362 394.473 48.1581 394.473 50.0763V62.6437C397.282 52.2749 405.383 47 419.757 47H425.704C427.848 47 429 48.1219 429 50.0401V63.0056C429 65.0776 427.848 66.0366 425.704 66.0366H418.268Z" fill="white"/>
<path d="M225.284 130.07L270.798 130.464C282.91 130.569 289.092 122.557 289.23 106.583L289.971 21.0881C289.989 18.9942 290.266 3.72013 288.5 3.70483L272 3.70481C269 2.70481 270.938 18.8292 270.92 20.9231L270.892 24.1692C270.823 32.0878 268.353 36.3826 262.3 37.1623L226.091 36.8488C212.806 36.7338 206.739 44.5821 206.589 61.8457L206.218 104.739C206.068 122.003 211.999 129.955 225.284 130.07ZM225.557 69.2706C225.638 59.9074 227.201 57.9914 235.32 58.0617L254.604 58.2287C262.717 58.2989 267.928 54.6314 270.697 47.3946L270.241 100.127C270.178 107.387 268.868 109.315 262.402 109.259L234.879 109.02C226.76 108.95 225.231 106.998 225.312 97.644L225.557 69.2706Z" fill="white"/>
<path d="M0 74.6042C0 60.1557 2.50186 47.3049 7.50558 36.0518C12.5093 24.6597 19.4589 15.8378 28.3544 9.58601C37.3611 3.19534 47.5354 0 58.8771 0C72.7764 0 93.7688 8.13897 103.665 17.3082C113.561 26.4774 113.897 51.2644 102.285 51.2643H83.0618C77.604 53.3599 77.3909 40.4974 73.0544 37.3021C68.829 34.1068 63.9921 32.5091 58.5436 32.5091C49.7592 32.5091 42.6428 36.3296 37.1943 43.9706C31.7458 51.6117 29.0216 61.8228 29.0216 74.6042C29.0216 87.3855 31.7458 97.5967 37.1943 105.238C42.6428 112.879 49.7592 116.699 58.5436 116.699C63.9921 116.699 68.829 115.102 73.0544 111.906C77.3909 108.711 85.4664 97.6258 90.345 97.6258L108.877 97.9441C125.343 97.9441 104.467 126.285 94.5704 135.455C84.6741 144.485 72.7764 149 58.8771 149C47.5354 149 37.3611 145.874 28.3544 139.622C19.4589 133.232 12.5093 124.41 7.50558 113.157C2.50186 101.903 0 89.0527 0 74.6042Z" fill="white"/>
<path d="M322.395 61.5V73.5C322.395 76.2614 324.634 78.5 327.395 78.5H351.63C354.391 78.5 356.63 80.7386 356.63 83.5V89.4964C356.63 92.2579 354.391 94.4964 351.63 94.4964H327.395C324.634 94.4964 322.395 96.735 322.395 99.4964V109C322.395 111.761 324.634 114 327.395 114H356C358.761 114 361 116.239 361 119V125C361 127.761 358.761 130 356 130H307C304.239 130 302 127.761 302 125V52C302 49.2386 304.239 47 307 47H356C358.761 47 361 49.2386 361 52V57.3688C361 60.1809 358.682 62.4399 355.871 62.3671L322.395 61.5Z" fill="white"/>
</svg>
