<svg width="549" height="172" viewBox="0 0 549 172" fill="none" xmlns="http://www.w3.org/2000/svg">
<path d="M196.632 53.0295C212.61 52.9997 225.267 56.3837 234.6 63.1817C244.082 69.8919 252.988 80.7974 253.008 91.4572C253.028 102.117 246.522 109.187 236.916 114.972C227.31 120.757 213.483 124.511 196.767 125.678C180.64 125.708 166.206 121.108 157.021 114.572C147.836 107.949 143.233 99.2634 143.213 88.5162C143.192 77.6816 147.912 69.3721 157.37 63.5877C166.976 57.7156 180.063 54.1962 196.632 53.0295ZM191.549 64.4414C178.677 64.4654 169.211 66.1868 163.151 69.6058C157.239 73.0245 154.29 78.4036 154.304 85.7432C154.317 92.9953 158.694 99.4093 167.434 104.985C176.173 110.473 186.905 113.206 199.629 113.182C212.353 113.158 221.744 111.35 227.804 107.756C233.863 104.075 236.886 98.652 236.872 91.4872C236.859 84.2351 232.557 77.9083 223.965 72.507C215.374 67.1057 204.568 64.4172 191.549 64.4414Z" fill="white"/>
<path d="M256.266 54.7982L304.436 54.7084C320.597 54.6783 332.013 55.5247 338.685 57.2476C345.356 58.9039 349.6 61.9328 351.416 66.3346C353.233 70.7364 354.151 78.3104 354.171 89.0564C354.191 99.8023 356.012 106.64 354.212 111.049C352.412 115.458 352.885 128.218 355.543 126.325C348.878 128.006 320.726 123.559 304.564 123.589L267.437 123.659L256.266 54.7982ZM302.176 115.584C315.399 115.56 324.27 115.143 328.789 114.333C333.421 113.457 336.412 111.382 337.762 108.109C339.112 104.77 339.778 98.4275 339.761 89.0832C339.744 79.8056 338.997 73.4995 337.522 70.165C336.159 66.8302 333.331 65.0959 328.696 64.3036C324.173 63.4443 315.187 62.6978 302.077 62.7222L270.254 62.7815L282.001 115.622L302.176 115.584Z" fill="white"/>
<path d="M440.01 122.591L382.817 122.488L377.319 64.8649C377.319 64.8066 377.121 64.341 376.724 63.468C376.427 62.5948 376.08 61.6926 375.684 60.7613C375.386 59.7716 375.237 59.2185 375.237 59.102L445.23 50.6536L439.903 65.0104L391.079 65.1014L391.12 87.0327L413.356 85.5179L429.007 92.9037L391.131 92.9742L396.774 113.473L439.999 116.562L440.01 122.591Z" fill="white"/>
<path d="M543.176 122.411L527.198 122.441L499.329 93.7459C497.061 93.8666 493.362 93.9317 488.233 93.9413L480.835 93.9551L467.199 160.089L454.055 144.543L467.021 64.7099C467.021 64.6516 466.823 64.186 466.427 63.313C466.129 62.4398 465.782 61.5376 465.386 60.6063C465.088 59.6166 464.939 59.0635 464.939 58.947L497.045 58.8872C521.309 58.842 533.452 64.6735 533.474 76.3818C533.48 79.8769 531.464 83.1426 527.426 86.1792C523.486 89.1573 518.657 91.176 512.938 92.2351L543.176 122.411ZM480.824 88.0135L492.66 87.9915C500.847 87.9762 507.306 87.0904 512.037 85.3341C516.768 83.5195 519.13 80.3696 519.121 75.8843C519.115 72.3311 516.989 69.6263 512.744 67.7702C508.499 65.8558 503.27 64.9044 497.056 64.916L480.781 64.9463L480.824 88.0135Z" fill="white"/>
<path d="M181.26 140.28C179.98 141.24 122.607 137.387 120.26 138.56C118.02 139.627 108.853 137.6 105.76 138.56C102.667 139.52 98.1 138.64 94.26 139.28C90.5267 139.92 86.5067 138.56 82.24 138.56C73.1733 138.56 65.0133 137.013 57.76 133.92C50.6133 130.72 44.5333 126.453 39.52 121.12C34.5067 115.787 30.6667 109.6 28 102.56C25.3333 95.52 24 88.0533 24 80.16C24 71.4133 25.5467 63.36 28.64 56C31.84 48.64 36.16 42.2933 41.6 36.96C47.04 31.6267 53.3867 27.4667 60.64 24.48C68 21.4933 75.7867 20 84 20C87.0933 20 90.24 20.2133 93.44 20.64C96.64 21.0667 104.427 21.5333 107.2 22.28C110.914 23.28 114.76 23.28 117.26 23.28C129.26 23.28 150.087 22.7133 151.26 23.78C150.407 25.06 134.793 29.4267 134.26 30.28C132.76 31.28 122.793 34.32 122.26 35.28C118.76 37.28 119 37.2 117.26 38.78C114.26 40.2 114.24 41.78 109.5 42.28C106.128 42.6357 104.16 40 102.24 39.36C100.427 38.72 98.5067 38.1867 96.48 37.76C94.4533 37.3333 92.3733 37.0133 90.24 36.8C88.2133 36.5867 86.3467 36.48 84.64 36.48C78.4533 36.48 72.6933 37.6533 67.36 40C62.1333 42.24 57.6 45.3333 53.76 49.28C49.92 53.12 46.88 57.6 44.64 62.72C42.5067 67.84 41.44 73.1733 41.44 78.72C41.44 84.16 42.4533 89.3867 44.48 94.4C46.6133 99.4133 49.4933 103.893 53.12 107.84C56.8533 111.787 61.28 114.933 66.4 117.28C71.6267 119.627 77.3333 120.8 83.52 120.8C86.8267 120.8 90.0267 120.48 93.12 119.84C96.2133 119.2 98.9867 118.453 101.44 117.6C104 116.747 106.08 115.893 107.68 115.04C109.387 114.187 110.4 113.547 110.72 113.12L181.26 140.28Z" fill="white"/>
</svg>
